<svg width="135" height="48" viewBox="0 0 135 48" fill="none" xmlns="http://www.w3.org/2000/svg" xmlns:xlink="http://www.w3.org/1999/xlink">
<rect width="43.5" height="48" fill="url(#pattern0)"/>
<path d="M67.15 15.668V36H71.128V15.668H78.166V11.86H60.146V15.668H67.15ZM94.3343 27.67C94.3343 22.366 90.7643 18.66 85.8003 18.66C80.6323 18.66 77.0623 22.468 77.0623 27.5C77.0623 32.566 80.7683 36.34 85.7663 36.34C87.8403 36.34 89.6423 35.796 91.1043 34.742C92.6003 33.688 93.5863 32.328 94.0963 30.662H90.1863C89.4043 32.26 87.8403 33.042 85.9023 33.042C84.4403 33.042 83.2163 32.6 82.2643 31.716C81.3463 30.832 80.8363 29.744 80.7683 28.418H94.3003L94.3343 27.67ZM80.9043 25.766C81.4143 23.216 83.2843 21.788 85.6983 21.788C87.9083 21.788 89.7443 23.148 90.2883 25.766H80.9043ZM98.141 10.5V36H101.881V10.5H98.141ZM106.907 10.5V36H110.647V10.5H106.907ZM114.448 27.5C114.448 32.43 118.358 36.34 123.356 36.34C128.354 36.34 132.264 32.43 132.264 27.5C132.264 22.57 128.354 18.66 123.356 18.66C118.358 18.66 114.448 22.57 114.448 27.5ZM128.456 27.5C128.456 30.492 126.314 32.872 123.356 32.872C120.33 32.872 118.222 30.492 118.222 27.5C118.222 24.508 120.33 22.128 123.356 22.128C126.314 22.128 128.456 24.508 128.456 27.5Z" fill="#2DD06E"/>
<defs>
<pattern id="pattern0" patternContentUnits="objectBoundingBox" width="1" height="1">
<use xlink:href="#image0_1282_11896" transform="translate(-1.22795 -0.95082) scale(0.000831947 0.000745157)"/>
</pattern>

</defs>
</svg>
