<svg width="323" height="20" viewBox="0 0 323 20" fill="none" xmlns="http://www.w3.org/2000/svg">
<g opacity="0.8">
<path d="M35.792 5.664C36.5173 6.34667 36.88 7.21067 36.88 8.256C36.88 9.30133 36.5173 10.1653 35.792 10.848C35.0773 11.52 34.1387 11.856 32.976 11.856H30.992V16H29.504V4.64H32.976C34.1387 4.64 35.0773 4.98133 35.792 5.664ZM34.752 9.856C35.1893 9.44 35.408 8.90667 35.408 8.256C35.408 7.60533 35.1893 7.072 34.752 6.656C34.3253 6.24 33.7333 6.032 32.976 6.032H30.992V10.48H32.976C33.7333 10.48 34.3253 10.272 34.752 9.856ZM41.829 16.16C40.6663 16.16 39.701 15.7653 38.933 14.976C38.1757 14.1867 37.797 13.1947 37.797 12C37.797 10.7947 38.165 9.80267 38.901 9.024C39.6477 8.23467 40.6343 7.84 41.861 7.84C43.0983 7.84 44.069 8.27733 44.773 9.152C45.477 10.0267 45.7863 11.0987 45.701 12.368H39.189C39.2103 13.0933 39.477 13.7013 39.989 14.192C40.501 14.672 41.1197 14.912 41.845 14.912C42.933 14.912 43.7063 14.464 44.165 13.568H45.573C45.3703 14.3147 44.9383 14.9333 44.277 15.424C43.6157 15.9147 42.7997 16.16 41.829 16.16ZM43.397 9.632C42.9597 9.248 42.4317 9.056 41.813 9.056C41.1943 9.056 40.6397 9.24267 40.149 9.616C39.669 9.98933 39.3703 10.544 39.253 11.28H44.245C44.117 10.5547 43.8343 10.0053 43.397 9.632ZM51.2386 16.16C50.0333 16.16 49.0306 15.76 48.2306 14.96C47.4413 14.1493 47.0466 13.1627 47.0466 12C47.0466 10.8373 47.4413 9.856 48.2306 9.056C49.0306 8.24533 50.0333 7.84 51.2386 7.84C52.4333 7.84 53.4253 8.24533 54.2146 9.056C55.0146 9.856 55.4146 10.8373 55.4146 12C55.4146 13.1627 55.0146 14.1493 54.2146 14.96C53.4253 15.76 52.4333 16.16 51.2386 16.16ZM49.2226 14.048C49.7453 14.6027 50.4173 14.88 51.2386 14.88C52.06 14.88 52.7266 14.6027 53.2386 14.048C53.7506 13.4933 54.0066 12.8107 54.0066 12C54.0066 11.1893 53.7506 10.5067 53.2386 9.952C52.7266 9.39733 52.06 9.12 51.2386 9.12C50.4173 9.12 49.7453 9.39733 49.2226 9.952C48.7106 10.5067 48.4546 11.1893 48.4546 12C48.4546 12.8107 48.7106 13.4933 49.2226 14.048ZM58.8938 8V17.056C58.8938 17.856 58.6698 18.464 58.2218 18.88C57.7738 19.296 57.1924 19.504 56.4778 19.504C56.2324 19.504 56.0137 19.488 55.8217 19.456V18.224C55.9924 18.2453 56.1471 18.256 56.2858 18.256C57.1071 18.256 57.5178 17.8027 57.5178 16.896V8H58.8938ZM58.9098 5.584C58.7284 5.76533 58.4991 5.856 58.2218 5.856C57.9444 5.856 57.7098 5.76533 57.5178 5.584C57.3258 5.392 57.2298 5.15733 57.2298 4.88C57.2298 4.61333 57.3258 4.384 57.5178 4.192C57.7098 4 57.9444 3.904 58.2218 3.904C58.4991 3.904 58.7284 4 58.9098 4.192C59.0911 4.384 59.1818 4.61333 59.1818 4.88C59.1818 5.15733 59.0911 5.392 58.9098 5.584ZM64.9071 16.16C63.7445 16.16 62.7791 15.7653 62.0111 14.976C61.2538 14.1867 60.8751 13.1947 60.8751 12C60.8751 10.7947 61.2431 9.80267 61.9791 9.024C62.7258 8.23467 63.7125 7.84 64.9391 7.84C66.1765 7.84 67.1471 8.27733 67.8511 9.152C68.5551 10.0267 68.8645 11.0987 68.7791 12.368H62.2671C62.2885 13.0933 62.5551 13.7013 63.0671 14.192C63.5791 14.672 64.1978 14.912 64.9231 14.912C66.0111 14.912 66.7845 14.464 67.2431 13.568H68.6511C68.4485 14.3147 68.0165 14.9333 67.3551 15.424C66.6938 15.9147 65.8778 16.16 64.9071 16.16ZM66.4751 9.632C66.0378 9.248 65.5098 9.056 64.8911 9.056C64.2725 9.056 63.7178 9.24267 63.2271 9.616C62.7471 9.98933 62.4485 10.544 62.3311 11.28H67.3231C67.1951 10.5547 66.9125 10.0053 66.4751 9.632ZM74.3168 16.16C73.1114 16.16 72.1141 15.76 71.3248 14.96C70.5354 14.1493 70.1408 13.1627 70.1408 12C70.1408 10.8373 70.5354 9.856 71.3248 9.056C72.1141 8.24533 73.1114 7.84 74.3168 7.84C75.3088 7.84 76.1674 8.11733 76.8928 8.672C77.6181 9.216 78.1034 9.93067 78.3488 10.816H76.8768C76.6848 10.2933 76.3648 9.87733 75.9168 9.568C75.4688 9.25867 74.9354 9.104 74.3168 9.104C73.4954 9.104 72.8234 9.38133 72.3008 9.936C71.7888 10.4907 71.5328 11.1787 71.5328 12C71.5328 12.8213 71.7888 13.5093 72.3008 14.064C72.8234 14.6187 73.4954 14.896 74.3168 14.896C74.9354 14.896 75.4688 14.7413 75.9168 14.432C76.3648 14.1227 76.6848 13.7067 76.8768 13.184H78.3488C78.1141 14.0693 77.6341 14.7893 76.9088 15.344C76.1834 15.888 75.3194 16.16 74.3168 16.16ZM83.1969 16.08C82.4609 16.08 81.8689 15.872 81.4209 15.456C80.9729 15.04 80.7489 14.432 80.7489 13.632V9.264H79.0529V8H80.7489V5.776H82.1249V8H84.4289V9.264H82.1249V13.456C82.1249 13.9573 82.2315 14.3093 82.4449 14.512C82.6582 14.7147 82.9942 14.816 83.4529 14.816C83.8582 14.816 84.1835 14.7627 84.4289 14.656V15.888C84.0449 16.016 83.6342 16.08 83.1969 16.08ZM86.7786 16H84.9546L89.3386 10.256L85.1306 4.64H86.9066L90.2506 9.072L93.5946 4.64H95.3706L91.1786 10.256L95.5466 16H93.7386L90.2506 11.456L86.7786 16ZM107.332 14.672V16H99.9715V15.456C99.9715 15.0613 100.03 14.688 100.148 14.336C100.276 13.9733 100.414 13.6693 100.564 13.424C100.713 13.1787 100.948 12.9067 101.268 12.608C101.588 12.2987 101.838 12.0747 102.02 11.936C102.201 11.7867 102.505 11.5627 102.932 11.264C103.358 10.9547 103.641 10.752 103.78 10.656C104.537 10.1013 105.06 9.63733 105.348 9.264C105.646 8.88 105.796 8.37867 105.796 7.76C105.796 7.16267 105.604 6.688 105.22 6.336C104.836 5.97333 104.334 5.792 103.716 5.792C103.065 5.792 102.51 5.98933 102.052 6.384C101.593 6.77867 101.364 7.328 101.364 8.032H99.9555C99.9555 6.96533 100.308 6.10133 101.012 5.44C101.726 4.77867 102.622 4.448 103.7 4.448C104.702 4.448 105.534 4.736 106.196 5.312C106.868 5.888 107.204 6.70933 107.204 7.776C107.204 8.58667 107.006 9.28 106.612 9.856C106.217 10.4213 105.54 11.0507 104.58 11.744C104.398 11.872 104.142 12.0533 103.812 12.288C103.481 12.512 103.225 12.6933 103.044 12.832C102.862 12.9707 102.66 13.1413 102.436 13.344C102.222 13.536 102.052 13.744 101.924 13.968C101.806 14.1813 101.721 14.416 101.668 14.672H107.332ZM113.085 16.16C111.901 16.16 110.936 15.7653 110.189 14.976C109.443 14.176 109.069 13.1467 109.069 11.888V8.72C109.069 7.46133 109.443 6.43733 110.189 5.648C110.947 4.848 111.912 4.448 113.085 4.448C114.259 4.448 115.224 4.848 115.981 5.648C116.739 6.448 117.117 7.472 117.117 8.72V11.888C117.117 13.1467 116.739 14.176 115.981 14.976C115.224 15.7653 114.259 16.16 113.085 16.16ZM113.085 14.816C113.875 14.816 114.515 14.5547 115.005 14.032C115.496 13.5093 115.741 12.7947 115.741 11.888V8.72C115.741 7.81333 115.496 7.09867 115.005 6.576C114.515 6.05333 113.875 5.792 113.085 5.792C112.307 5.792 111.672 6.05333 111.181 6.576C110.691 7.09867 110.445 7.81333 110.445 8.72V11.888C110.445 12.7947 110.691 13.5093 111.181 14.032C111.672 14.5547 112.307 14.816 113.085 14.816ZM126.222 14.672V16H118.862V15.456C118.862 15.0613 118.921 14.688 119.038 14.336C119.166 13.9733 119.305 13.6693 119.454 13.424C119.603 13.1787 119.838 12.9067 120.158 12.608C120.478 12.2987 120.729 12.0747 120.91 11.936C121.091 11.7867 121.395 11.5627 121.822 11.264C122.249 10.9547 122.531 10.752 122.67 10.656C123.427 10.1013 123.95 9.63733 124.238 9.264C124.537 8.88 124.686 8.37867 124.686 7.76C124.686 7.16267 124.494 6.688 124.11 6.336C123.726 5.97333 123.225 5.792 122.606 5.792C121.955 5.792 121.401 5.98933 120.942 6.384C120.483 6.77867 120.254 7.328 120.254 8.032H118.846C118.846 6.96533 119.198 6.10133 119.902 5.44C120.617 4.77867 121.513 4.448 122.59 4.448C123.593 4.448 124.425 4.736 125.086 5.312C125.758 5.888 126.094 6.70933 126.094 7.776C126.094 8.58667 125.897 9.28 125.502 9.856C125.107 10.4213 124.43 11.0507 123.47 11.744C123.289 11.872 123.033 12.0533 122.702 12.288C122.371 12.512 122.115 12.6933 121.934 12.832C121.753 12.9707 121.55 13.1413 121.326 13.344C121.113 13.536 120.942 13.744 120.814 13.968C120.697 14.1813 120.611 14.416 120.558 14.672H126.222ZM129.32 16V6H127.128L128.248 4.64H130.696V16H129.32ZM135.051 15.776C134.827 16.0107 134.55 16.128 134.219 16.128C133.888 16.128 133.606 16.0107 133.371 15.776C133.147 15.5413 133.035 15.2587 133.035 14.928C133.035 14.608 133.152 14.3307 133.387 14.096C133.622 13.8507 133.899 13.728 134.219 13.728C134.539 13.728 134.816 13.8507 135.051 14.096C135.286 14.3307 135.403 14.608 135.403 14.928C135.403 15.2587 135.286 15.5413 135.051 15.776ZM141.598 16V4.64H145.326C146.35 4.64 147.171 4.93333 147.79 5.52C148.408 6.10667 148.718 6.816 148.718 7.648C148.718 8.69333 148.312 9.46667 147.502 9.968C148.814 10.448 149.47 11.3547 149.47 12.688C149.47 13.648 149.118 14.4427 148.414 15.072C147.72 15.6907 146.803 16 145.662 16H141.598ZM143.086 14.656H145.726C146.472 14.656 147.038 14.4853 147.422 14.144C147.816 13.792 148.014 13.3227 148.014 12.736C148.014 12.16 147.816 11.696 147.422 11.344C147.038 10.9813 146.478 10.8 145.742 10.8H143.086V14.656ZM143.086 9.52H145.326C145.923 9.52 146.392 9.36 146.734 9.04C147.086 8.70933 147.262 8.28267 147.262 7.76C147.262 7.25867 147.086 6.83733 146.734 6.496C146.382 6.15467 145.912 5.984 145.326 5.984H143.086V9.52ZM154.269 16.16C153.394 16.16 152.685 15.8667 152.141 15.28C151.597 14.6827 151.325 13.8933 151.325 12.912V8H152.701V12.704C152.701 13.376 152.861 13.9093 153.181 14.304C153.511 14.6987 153.954 14.896 154.509 14.896C155.149 14.896 155.677 14.6347 156.093 14.112C156.519 13.5787 156.733 12.864 156.733 11.968V8H158.109V16H156.733V14.768C156.21 15.696 155.389 16.16 154.269 16.16ZM152.909 6.464C152.642 6.464 152.418 6.37333 152.237 6.192C152.055 6.01067 151.965 5.792 151.965 5.536C151.965 5.28 152.055 5.06133 152.237 4.88C152.418 4.688 152.642 4.592 152.909 4.592C153.165 4.592 153.383 4.688 153.565 4.88C153.746 5.06133 153.837 5.28 153.837 5.536C153.837 5.792 153.746 6.01067 153.565 6.192C153.383 6.37333 153.165 6.464 152.909 6.464ZM157.165 6.192C156.983 6.37333 156.765 6.464 156.509 6.464C156.253 6.464 156.029 6.37333 155.837 6.192C155.655 6.01067 155.565 5.792 155.565 5.536C155.565 5.28 155.655 5.06133 155.837 4.88C156.029 4.688 156.253 4.592 156.509 4.592C156.765 4.592 156.983 4.688 157.165 4.88C157.346 5.06133 157.437 5.28 157.437 5.536C157.437 5.792 157.346 6.01067 157.165 6.192ZM163.806 16.08C163.07 16.08 162.478 15.872 162.03 15.456C161.582 15.04 161.358 14.432 161.358 13.632V9.264H159.662V8H161.358V5.776H162.734V8H165.038V9.264H162.734V13.456C162.734 13.9573 162.841 14.3093 163.054 14.512C163.268 14.7147 163.604 14.816 164.062 14.816C164.468 14.816 164.793 14.7627 165.038 14.656V15.888C164.654 16.016 164.244 16.08 163.806 16.08ZM169.628 16.16C168.753 16.16 168.044 15.8667 167.5 15.28C166.956 14.6827 166.684 13.8933 166.684 12.912V8H168.06V12.704C168.06 13.376 168.22 13.9093 168.54 14.304C168.871 14.6987 169.313 14.896 169.868 14.896C170.508 14.896 171.036 14.6347 171.452 14.112C171.879 13.5787 172.092 12.864 172.092 11.968V8H173.468V16H172.092V14.768C171.569 15.696 170.748 16.16 169.628 16.16ZM168.268 6.464C168.001 6.464 167.777 6.37333 167.596 6.192C167.415 6.01067 167.324 5.792 167.324 5.536C167.324 5.28 167.415 5.06133 167.596 4.88C167.777 4.688 168.001 4.592 168.268 4.592C168.524 4.592 168.743 4.688 168.924 4.88C169.105 5.06133 169.196 5.28 169.196 5.536C169.196 5.792 169.105 6.01067 168.924 6.192C168.743 6.37333 168.524 6.464 168.268 6.464ZM172.524 6.192C172.343 6.37333 172.124 6.464 171.868 6.464C171.612 6.464 171.388 6.37333 171.196 6.192C171.015 6.01067 170.924 5.792 170.924 5.536C170.924 5.28 171.015 5.06133 171.196 4.88C171.388 4.688 171.612 4.592 171.868 4.592C172.124 4.592 172.343 4.688 172.524 4.88C172.705 5.06133 172.796 5.28 172.796 5.536C172.796 5.792 172.705 6.01067 172.524 6.192ZM176.062 16V8H177.438V9.232C177.982 8.304 178.83 7.84 179.982 7.84C180.888 7.84 181.619 8.13333 182.174 8.72C182.728 9.30667 183.006 10.0907 183.006 11.072V16H181.646V11.28C181.646 10.608 181.475 10.08 181.134 9.696C180.792 9.30133 180.334 9.104 179.758 9.104C179.096 9.104 178.542 9.36533 178.094 9.888C177.656 10.4107 177.438 11.1253 177.438 12.032V16H176.062ZM190.719 16H189.343V4H190.719V9.232C191.263 8.304 192.111 7.84 193.263 7.84C194.17 7.84 194.9 8.13333 195.455 8.72C196.01 9.30667 196.287 10.0907 196.287 11.072V16H194.927V11.28C194.927 10.608 194.756 10.08 194.415 9.696C194.074 9.30133 193.615 9.104 193.039 9.104C192.378 9.104 191.823 9.36533 191.375 9.888C190.938 10.4107 190.719 11.1253 190.719 12.032V16ZM201.597 16.16C200.722 16.16 200.013 15.8667 199.469 15.28C198.925 14.6827 198.653 13.8933 198.653 12.912V8H200.029V12.704C200.029 13.376 200.189 13.9093 200.509 14.304C200.839 14.6987 201.282 14.896 201.837 14.896C202.477 14.896 203.005 14.6347 203.421 14.112C203.847 13.5787 204.061 12.864 204.061 11.968V8H205.437V16H204.061V14.768C203.538 15.696 202.717 16.16 201.597 16.16ZM200.237 6.464C199.97 6.464 199.746 6.37333 199.565 6.192C199.383 6.01067 199.293 5.792 199.293 5.536C199.293 5.28 199.383 5.06133 199.565 4.88C199.746 4.688 199.97 4.592 200.237 4.592C200.493 4.592 200.711 4.688 200.893 4.88C201.074 5.06133 201.165 5.28 201.165 5.536C201.165 5.792 201.074 6.01067 200.893 6.192C200.711 6.37333 200.493 6.464 200.237 6.464ZM204.493 6.192C204.311 6.37333 204.093 6.464 203.837 6.464C203.581 6.464 203.357 6.37333 203.165 6.192C202.983 6.01067 202.893 5.792 202.893 5.536C202.893 5.28 202.983 5.06133 203.165 4.88C203.357 4.688 203.581 4.592 203.837 4.592C204.093 4.592 204.311 4.688 204.493 4.88C204.674 5.06133 204.765 5.28 204.765 5.536C204.765 5.792 204.674 6.01067 204.493 6.192ZM215.518 19.344H214.142V14.768C213.865 15.1733 213.47 15.5093 212.958 15.776C212.457 16.032 211.913 16.16 211.326 16.16C210.217 16.16 209.284 15.7547 208.526 14.944C207.78 14.1333 207.406 13.152 207.406 12C207.406 10.848 207.78 9.86667 208.526 9.056C209.284 8.24533 210.217 7.84 211.326 7.84C211.913 7.84 212.457 7.97333 212.958 8.24C213.47 8.496 213.865 8.82667 214.142 9.232V8H215.518V19.344ZM211.534 14.896C212.324 14.896 212.974 14.6187 213.486 14.064C213.998 13.5093 214.254 12.8213 214.254 12C214.254 11.1787 213.998 10.4907 213.486 9.936C212.974 9.38133 212.324 9.104 211.534 9.104C210.734 9.104 210.078 9.38133 209.566 9.936C209.054 10.4907 208.798 11.1787 208.798 12C208.798 12.8213 209.054 13.5093 209.566 14.064C210.078 14.6187 210.734 14.896 211.534 14.896ZM220.941 16.16C220.066 16.16 219.357 15.8667 218.812 15.28C218.269 14.6827 217.997 13.8933 217.997 12.912V8H219.373V12.704C219.373 13.376 219.533 13.9093 219.853 14.304C220.183 14.6987 220.626 14.896 221.181 14.896C221.821 14.896 222.349 14.6347 222.765 14.112C223.191 13.5787 223.405 12.864 223.405 11.968V8H224.781V16H223.405V14.768C222.882 15.696 222.061 16.16 220.941 16.16ZM234.862 19.344H233.486V14.768C233.209 15.1733 232.814 15.5093 232.302 15.776C231.801 16.032 231.257 16.16 230.67 16.16C229.561 16.16 228.627 15.7547 227.87 14.944C227.123 14.1333 226.75 13.152 226.75 12C226.75 10.848 227.123 9.86667 227.87 9.056C228.627 8.24533 229.561 7.84 230.67 7.84C231.257 7.84 231.801 7.97333 232.302 8.24C232.814 8.496 233.209 8.82667 233.486 9.232V8H234.862V19.344ZM230.878 14.896C231.667 14.896 232.318 14.6187 232.83 14.064C233.342 13.5093 233.598 12.8213 233.598 12C233.598 11.1787 233.342 10.4907 232.83 9.936C232.318 9.38133 231.667 9.104 230.878 9.104C230.078 9.104 229.422 9.38133 228.91 9.936C228.398 10.4907 228.142 11.1787 228.142 12C228.142 12.8213 228.398 13.5093 228.91 14.064C229.422 14.6187 230.078 14.896 230.878 14.896ZM237.452 16V4H238.828V16H237.452ZM244.733 16.16C243.623 16.16 242.69 15.7547 241.933 14.944C241.186 14.1333 240.813 13.152 240.813 12C240.813 10.848 241.186 9.86667 241.933 9.056C242.69 8.24533 243.623 7.84 244.733 7.84C245.319 7.84 245.863 7.97333 246.365 8.24C246.877 8.496 247.271 8.82667 247.549 9.232V8H248.925V16H247.549V14.768C247.271 15.1733 246.877 15.5093 246.365 15.776C245.863 16.032 245.319 16.16 244.733 16.16ZM244.941 14.896C245.73 14.896 246.381 14.6187 246.893 14.064C247.405 13.5093 247.661 12.8213 247.661 12C247.661 11.1787 247.405 10.4907 246.893 9.936C246.381 9.38133 245.73 9.104 244.941 9.104C244.141 9.104 243.485 9.38133 242.973 9.936C242.461 10.4907 242.205 11.1787 242.205 12C242.205 12.8213 242.461 13.5093 242.973 14.064C243.485 14.6187 244.141 14.896 244.941 14.896ZM251.515 16V8H252.891V9.552C253.04 9.06133 253.328 8.66667 253.755 8.368C254.192 8.06933 254.651 7.92 255.131 7.92C255.365 7.92 255.573 7.94133 255.755 7.984V9.408C255.563 9.32267 255.312 9.28 255.003 9.28C254.448 9.28 253.957 9.52 253.531 10C253.104 10.48 252.891 11.1573 252.891 12.032V16H251.515ZM268.315 19.344H266.939V14.768C266.662 15.1733 266.267 15.5093 265.755 15.776C265.254 16.032 264.71 16.16 264.123 16.16C263.014 16.16 262.081 15.7547 261.323 14.944C260.577 14.1333 260.203 13.152 260.203 12C260.203 10.848 260.577 9.86667 261.323 9.056C262.081 8.24533 263.014 7.84 264.123 7.84C264.71 7.84 265.254 7.97333 265.755 8.24C266.267 8.496 266.662 8.82667 266.939 9.232V8H268.315V19.344ZM264.331 14.896C265.121 14.896 265.771 14.6187 266.283 14.064C266.795 13.5093 267.051 12.8213 267.051 12C267.051 11.1787 266.795 10.4907 266.283 9.936C265.771 9.38133 265.121 9.104 264.331 9.104C263.531 9.104 262.875 9.38133 262.363 9.936C261.851 10.4907 261.595 11.1787 261.595 12C261.595 12.8213 261.851 13.5093 262.363 14.064C262.875 14.6187 263.531 14.896 264.331 14.896ZM274.457 16.16C273.252 16.16 272.249 15.76 271.449 14.96C270.66 14.1493 270.265 13.1627 270.265 12C270.265 10.8373 270.66 9.856 271.449 9.056C272.249 8.24533 273.252 7.84 274.457 7.84C275.652 7.84 276.644 8.24533 277.433 9.056C278.233 9.856 278.633 10.8373 278.633 12C278.633 13.1627 278.233 14.1493 277.433 14.96C276.644 15.76 275.652 16.16 274.457 16.16ZM272.441 14.048C272.964 14.6027 273.636 14.88 274.457 14.88C275.279 14.88 275.945 14.6027 276.457 14.048C276.969 13.4933 277.225 12.8107 277.225 12C277.225 11.1893 276.969 10.5067 276.457 9.952C275.945 9.39733 275.279 9.12 274.457 9.12C273.636 9.12 272.964 9.39733 272.441 9.952C271.929 10.5067 271.673 11.1893 271.673 12C271.673 12.8107 271.929 13.4933 272.441 14.048ZM280.609 16V8H281.985V9.552C282.134 9.06133 282.422 8.66667 282.849 8.368C283.286 8.06933 283.745 7.92 284.225 7.92C284.459 7.92 284.667 7.94133 284.849 7.984V9.408C284.657 9.32267 284.406 9.28 284.097 9.28C283.542 9.28 283.051 9.52 282.625 10C282.198 10.48 281.985 11.1573 281.985 12.032V16H280.609ZM289.3 16.16C288.425 16.16 287.716 15.8667 287.172 15.28C286.628 14.6827 286.356 13.8933 286.356 12.912V8H287.732V12.704C287.732 13.376 287.892 13.9093 288.212 14.304C288.543 14.6987 288.985 14.896 289.54 14.896C290.18 14.896 290.708 14.6347 291.124 14.112C291.551 13.5787 291.764 12.864 291.764 11.968V8H293.14V16H291.764V14.768C291.241 15.696 290.42 16.16 289.3 16.16ZM295.734 16V8H297.11V9.232C297.654 8.304 298.502 7.84 299.654 7.84C300.56 7.84 301.291 8.13333 301.846 8.72C302.4 9.30667 302.678 10.0907 302.678 11.072V16H301.318V11.28C301.318 10.608 301.147 10.08 300.806 9.696C300.464 9.30133 300.006 9.104 299.43 9.104C298.768 9.104 298.214 9.36533 297.766 9.888C297.328 10.4107 297.11 11.1253 297.11 12.032V16H295.734ZM307.987 16.16C307.113 16.16 306.403 15.8667 305.859 15.28C305.315 14.6827 305.043 13.8933 305.043 12.912V8H306.419V12.704C306.419 13.376 306.579 13.9093 306.899 14.304C307.23 14.6987 307.673 14.896 308.227 14.896C308.867 14.896 309.395 14.6347 309.811 14.112C310.238 13.5787 310.451 12.864 310.451 11.968V8H311.827V16H310.451V14.768C309.929 15.696 309.107 16.16 307.987 16.16ZM314.421 16V8H315.797V9.552C315.946 9.06133 316.234 8.66667 316.661 8.368C317.098 8.06933 317.557 7.92 318.037 7.92C318.272 7.92 318.48 7.94133 318.661 7.984V9.408C318.469 9.32267 318.218 9.28 317.909 9.28C317.354 9.28 316.864 9.52 316.437 10C316.01 10.48 315.797 11.1573 315.797 12.032V16H314.421ZM320.957 15.776C320.733 16.0107 320.456 16.128 320.125 16.128C319.795 16.128 319.512 16.0107 319.277 15.776C319.053 15.5413 318.941 15.2587 318.941 14.928C318.941 14.608 319.059 14.3307 319.293 14.096C319.528 13.8507 319.805 13.728 320.125 13.728C320.445 13.728 320.723 13.8507 320.957 14.096C321.192 14.3307 321.309 14.608 321.309 14.928C321.309 15.2587 321.192 15.5413 320.957 15.776Z" fill="white"/>
<path d="M8 17.5C12.1421 17.5 15.5 14.1421 15.5 10C15.5 5.85786 12.1421 2.5 8 2.5C3.85786 2.5 0.5 5.85786 0.5 10C0.5 14.1421 3.85786 17.5 8 17.5Z" stroke="white" stroke-linecap="round" stroke-linejoin="round"/>
<path d="M10.0833 7.50008C9.66237 7.07578 9.1432 6.79931 8.58814 6.70386C8.03309 6.60841 7.46572 6.69802 6.95413 6.96196C6.44253 7.22589 6.00844 7.65293 5.70395 8.19183C5.39945 8.73072 5.23749 9.35859 5.23749 10.0001C5.23749 10.6416 5.39945 11.2694 5.70395 11.8083C6.00844 12.3472 6.44253 12.7743 6.95413 13.0382C7.46572 13.3021 8.03309 13.3918 8.58814 13.2963C9.1432 13.2009 9.66237 12.9244 10.0833 12.5001" stroke="white" stroke-linecap="round" stroke-linejoin="round"/>
</g>
</svg>
