<svg width="82" height="83" viewBox="0 0 82 83" fill="none" xmlns="http://www.w3.org/2000/svg">
<path d="M55.5212 12.6532C61.2271 17.0265 64.9171 23.894 64.9171 31.6498C64.9171 36.604 63.4479 41.1482 60.9196 44.9407C57.2296 50.4074 51.3871 54.2682 44.5879 55.259C43.4262 55.464 42.2304 55.5665 41.0004 55.5665C39.7704 55.5665 38.5746 55.464 37.4129 55.259C30.6137 54.2682 24.7712 50.4074 21.0812 44.9407C18.5529 41.1482 17.0837 36.604 17.0837 31.6498C17.0837 18.4273 27.7779 7.73315 41.0004 7.73315" stroke="#2DD06E" stroke-width="2.05" stroke-linecap="round" stroke-linejoin="round"/>
<path d="M72.6039 64.0057L66.9664 65.3382C65.7022 65.6457 64.7114 66.6024 64.438 67.8666L63.2422 72.8891C62.593 75.6224 59.108 76.4424 57.2972 74.2899L40.9997 55.5665L24.7022 74.324C22.8914 76.4765 19.4064 75.6565 18.7572 72.9232L17.5614 67.9007C17.2539 66.6365 16.263 65.6457 15.033 65.3724L9.39553 64.0399C6.79887 63.4249 5.87637 60.179 7.75553 58.2998L21.0805 44.9749C24.7705 50.4415 30.613 54.3024 37.4122 55.2933C38.5739 55.4983 39.7697 55.6007 40.9997 55.6007C42.2297 55.6007 43.4255 55.4983 44.5872 55.2933C51.3864 54.3024 57.2289 50.4415 60.9189 44.9749L74.2439 58.2998C76.123 60.1448 75.2005 63.3907 72.6039 64.0057Z" stroke="#2DD06E" stroke-width="2.05" stroke-linecap="round" stroke-linejoin="round"/>
<path d="M42.982 21.3317L44.9978 25.3633C45.2711 25.91 45.9886 26.4566 46.6378 26.5591L50.2936 27.1741C52.617 27.55 53.1636 29.2583 51.4895 30.9325L48.6536 33.7683C48.1753 34.2466 47.902 35.1691 48.0728 35.8525L48.8928 39.3716C49.542 42.1391 48.0728 43.2324 45.6128 41.7632L42.1961 39.7474C41.5811 39.3716 40.5561 39.3716 39.9411 39.7474L36.5245 41.7632C34.0645 43.1982 32.5953 42.1391 33.2445 39.3716L34.0645 35.8525C34.2011 35.2033 33.962 34.2466 33.4836 33.7683L30.6478 30.9325C28.9736 29.2583 29.5203 27.5841 31.8436 27.1741L35.4995 26.5591C36.1145 26.4566 36.832 25.91 37.1053 25.3633L39.1211 21.3317C40.112 19.145 41.8886 19.145 42.982 21.3317Z" stroke="#2DD06E" stroke-width="2.05" stroke-linecap="round" stroke-linejoin="round"/>
</svg>
