<svg width="135" height="33" viewBox="0 0 135 33" fill="none" xmlns="http://www.w3.org/2000/svg">
<path d="M13.68 4.424C15.152 5.832 15.888 7.592 15.888 9.704C15.888 11.816 15.152 13.5867 13.68 15.016C12.208 16.424 10.32 17.128 8.016 17.128H4.528V25H0.784V2.28H8.016C10.32 2.28 12.208 2.99467 13.68 4.424ZM11.056 12.52C11.824 11.7733 12.208 10.8347 12.208 9.704C12.208 8.57333 11.824 7.64533 11.056 6.92C10.3093 6.17333 9.28533 5.8 7.984 5.8H4.528V13.608H7.984C9.28533 13.608 10.3093 13.2453 11.056 12.52ZM18.9305 25V9H22.4505V11.848C22.7492 10.952 23.2932 10.2267 24.0825 9.672C24.8932 9.11733 25.7572 8.84 26.6745 8.84C27.2292 8.84 27.6878 8.88267 28.0505 8.968V12.584C27.5385 12.392 26.9518 12.296 26.2905 12.296C25.2238 12.296 24.3172 12.7333 23.5705 13.608C22.8238 14.4613 22.4505 15.656 22.4505 17.192V25H18.9305ZM43.7083 22.92C42.1083 24.52 40.1243 25.32 37.7563 25.32C35.3883 25.32 33.3936 24.52 31.7723 22.92C30.1723 21.2987 29.3723 19.3253 29.3723 17C29.3723 14.6747 30.1723 12.712 31.7723 11.112C33.3936 9.49067 35.3883 8.68 37.7563 8.68C40.1243 8.68 42.1083 9.49067 43.7083 11.112C45.3296 12.712 46.1403 14.6747 46.1403 17C46.1403 19.3253 45.3296 21.2987 43.7083 22.92ZM37.7563 22.056C39.1429 22.056 40.2843 21.576 41.1803 20.616C42.0976 19.6347 42.5563 18.4293 42.5563 17C42.5563 15.5707 42.0976 14.376 41.1803 13.416C40.2843 12.4347 39.1429 11.944 37.7563 11.944C36.3483 11.944 35.1856 12.4347 34.2683 13.416C33.3723 14.376 32.9243 15.5707 32.9243 17C32.9243 18.4293 33.3723 19.6347 34.2683 20.616C35.1856 21.576 36.3483 22.056 37.7563 22.056ZM53.4565 9V26.696C53.4565 28.4027 52.9445 29.7147 51.9205 30.632C50.9178 31.5493 49.6378 32.008 48.0805 32.008C47.4832 32.008 46.9818 31.976 46.5765 31.912V28.84C46.8752 28.8827 47.1632 28.904 47.4405 28.904C49.1045 28.904 49.9365 27.9973 49.9365 26.184V9H53.4565ZM51.6965 5.512C51.0565 5.512 50.5018 5.288 50.0325 4.84C49.5632 4.37067 49.3285 3.80533 49.3285 3.144C49.3285 2.504 49.5632 1.96 50.0325 1.512C50.5018 1.04267 51.0565 0.807999 51.6965 0.807999C52.3578 0.807999 52.9125 1.04267 53.3605 1.512C53.8085 1.96 54.0325 2.504 54.0325 3.144C54.0325 3.80533 53.8085 4.37067 53.3605 4.84C52.9125 5.288 52.3578 5.512 51.6965 5.512ZM65.2525 25.32C62.8632 25.32 60.9005 24.5413 59.3645 22.984C57.8285 21.4053 57.0605 19.4107 57.0605 17C57.0605 14.5893 57.8178 12.6053 59.3325 11.048C60.8472 9.46933 62.8312 8.68 65.2845 8.68C67.7592 8.68 69.7538 9.544 71.2685 11.272C72.7832 12.9787 73.4552 15.176 73.2845 17.864H60.5485C60.5912 19.1013 61.0605 20.136 61.9565 20.968C62.8525 21.8 63.9938 22.216 65.3805 22.216C67.3432 22.216 68.6872 21.4693 69.4125 19.976H73.0925C72.6018 21.5333 71.6632 22.8133 70.2765 23.816C68.8898 24.8187 67.2152 25.32 65.2525 25.32ZM65.1885 11.624C64.0365 11.624 63.0445 11.9547 62.2125 12.616C61.4018 13.256 60.8792 14.1733 60.6445 15.368H69.5085C69.2525 14.1307 68.7298 13.2027 67.9405 12.584C67.1512 11.944 66.2338 11.624 65.1885 11.624ZM84.1313 25.32C81.7206 25.32 79.7153 24.52 78.1153 22.92C76.5366 21.2987 75.7473 19.3253 75.7473 17C75.7473 14.6747 76.5366 12.712 78.1153 11.112C79.7153 9.49067 81.7206 8.68 84.1313 8.68C86.2006 8.68 87.9606 9.256 89.4113 10.408C90.8833 11.56 91.8326 13.0427 92.2593 14.856H88.5473C88.2273 13.96 87.6726 13.2453 86.8833 12.712C86.1153 12.1573 85.1979 11.88 84.1313 11.88C82.7233 11.88 81.5713 12.36 80.6753 13.32C79.7793 14.28 79.3313 15.5067 79.3313 17C79.3313 18.4933 79.7793 19.72 80.6753 20.68C81.5713 21.64 82.7233 22.12 84.1313 22.12C85.1979 22.12 86.1153 21.8533 86.8833 21.32C87.6726 20.7653 88.2273 20.04 88.5473 19.144H92.2593C91.8326 20.9573 90.8833 22.44 89.4113 23.592C87.9606 24.744 86.2006 25.32 84.1313 25.32ZM102.343 25.16C100.722 25.16 99.3993 24.712 98.3753 23.816C97.3726 22.8987 96.8713 21.576 96.8713 19.848V12.136H93.5433V9H96.8713V4.552H100.391V9H104.967V12.136H100.391V19.272C100.391 20.2533 100.605 20.9573 101.031 21.384C101.458 21.7893 102.141 21.992 103.079 21.992C103.847 21.992 104.477 21.8853 104.967 21.672V24.808C104.199 25.0427 103.325 25.16 102.343 25.16Z" fill="white"/>
<path d="M117.355 25H112.843L121.515 13.48L113.259 2.28H117.675L123.787 10.568L129.931 2.28H134.347L126.091 13.512L134.763 25H130.283L123.819 16.488L117.355 25Z" fill="#2DD06E"/>
</svg>
