<svg width="16" height="20" viewBox="0 0 16 20" fill="none" xmlns="http://www.w3.org/2000/svg">
<path d="M4.39922 4.54542V2.72724C4.39922 2.24503 4.58886 1.78257 4.92643 1.44159C5.26399 1.10062 5.72183 0.909058 6.19922 0.909058H9.79922C10.2766 0.909058 10.7344 1.10062 11.072 1.44159C11.4096 1.78257 11.5992 2.24503 11.5992 2.72724V4.54542M14.2992 4.54542V17.2727C14.2992 17.7549 14.1096 18.2174 13.772 18.5583C13.4344 18.8993 12.9766 19.0909 12.4992 19.0909H3.49922C3.02183 19.0909 2.56399 18.8993 2.22643 18.5583C1.88886 18.2174 1.69922 17.7549 1.69922 17.2727V4.54542H14.2992Z" stroke="#DB2C66" stroke-width="1.5" stroke-linecap="round" stroke-linejoin="round"/>
</svg>
